<svg width="5" height="19" viewBox="0 0 5 19" fill="none" xmlns="http://www.w3.org/2000/svg">
<path d="M0.744282 2.12092C0.744282 3.29228 1.69385 4.24185 2.86521 4.24185C4.03656 4.24185 4.98613 3.29228 4.98613 2.12092C4.98613 0.94957 4.03656 0 2.86521 0C1.69385 0 0.744282 0.94957 0.744282 2.12092Z" fill="#A0BCE4"/>
<path d="M0.744282 9.33212C0.744282 10.5035 1.69385 11.453 2.86521 11.453C4.03656 11.453 4.98613 10.5035 4.98613 9.33212C4.98613 8.16077 4.03656 7.2112 2.86521 7.2112C1.69385 7.2112 0.744282 8.16077 0.744282 9.33212Z" fill="#A0BCE4"/>
<path d="M0.744282 16.5433C0.744282 17.7147 1.69385 18.6643 2.86521 18.6643C4.03656 18.6643 4.98613 17.7147 4.98613 16.5433C4.98613 15.372 4.03656 14.4224 2.86521 14.4224C1.69385 14.4224 0.744282 15.372 0.744282 16.5433Z" fill="#A0BCE4"/>
</svg>
