<svg width="59" height="58" viewBox="0 0 59 58" fill="none" xmlns="http://www.w3.org/2000/svg">
<g filter="url(#filter0_d_1_62)">
<path fill-rule="evenodd" clip-rule="evenodd" d="M12 15C12 12.2386 14.2386 10 17 10H41.5763C44.3377 10 46.5763 12.2386 46.5763 15V39C46.5763 41.7614 44.3377 44 41.5763 44H17C14.2386 44 12 41.7614 12 39V15Z" fill="url(#paint0_linear_1_62)"/>
</g>
<path d="M25.0751 30.2857C24.0337 30.2857 23.1865 31.1189 23.1865 32.1429C23.1865 33.1668 24.0337 34 25.0751 34C26.1164 34 26.9637 33.1668 26.9637 32.1429C26.9637 31.1189 26.1164 30.2857 25.0751 30.2857Z" fill="white"/>
<path d="M29.7966 30.2857C28.7553 30.2857 27.908 31.1189 27.908 32.1429C27.908 33.1668 28.7553 34 29.7966 34C30.838 34 31.6853 33.1668 31.6853 32.1429C31.6853 31.1189 30.838 30.2857 29.7966 30.2857Z" fill="white"/>
<path d="M34.5182 30.2857C33.4769 30.2857 32.6296 31.1189 32.6296 32.1429C32.6296 33.1668 33.4769 34 34.5182 34C35.5595 34 36.4068 33.1668 36.4068 32.1429C36.4068 31.1189 35.5595 30.2857 34.5182 30.2857Z" fill="white"/>
<path d="M25.0751 25.6429C24.0337 25.6429 23.1865 26.476 23.1865 27.5C23.1865 28.524 24.0337 29.3571 25.0751 29.3571C26.1164 29.3571 26.9637 28.524 26.9637 27.5C26.9637 26.476 26.1164 25.6429 25.0751 25.6429Z" fill="white"/>
<path d="M29.7966 25.6429C28.7553 25.6429 27.908 26.476 27.908 27.5C27.908 28.524 28.7553 29.3571 29.7966 29.3571C30.838 29.3571 31.6853 28.524 31.6853 27.5C31.6853 26.476 30.838 25.6429 29.7966 25.6429Z" fill="white"/>
<path d="M34.5182 25.6429C33.4769 25.6429 32.6296 26.476 32.6296 27.5C32.6296 28.524 33.4769 29.3571 34.5182 29.3571C35.5595 29.3571 36.4068 28.524 36.4068 27.5C36.4068 26.476 35.5595 25.6429 34.5182 25.6429Z" fill="white"/>
<path d="M25.0751 21C24.0337 21 23.1865 21.8332 23.1865 22.8571C23.1865 23.8811 24.0337 24.7143 25.0751 24.7143C26.1164 24.7143 26.9637 23.8811 26.9637 22.8571C26.9637 21.8332 26.1164 21 25.0751 21Z" fill="white"/>
<path d="M29.7966 21C28.7553 21 27.908 21.8332 27.908 22.8571C27.908 23.8811 28.7553 24.7143 29.7966 24.7143C30.838 24.7143 31.6853 23.8811 31.6853 22.8571C31.6853 21.8332 30.838 21 29.7966 21Z" fill="white"/>
<path d="M34.5182 24.7143C35.5595 24.7143 36.4068 23.8811 36.4068 22.8571C36.4068 21.8332 35.5595 21 34.5182 21C33.4769 21 32.6296 21.8332 32.6296 22.8571C32.6296 23.8811 33.4769 24.7143 34.5182 24.7143Z" fill="white"/>
<defs>
<filter id="filter0_d_1_62" x="0" y="0" width="58.5763" height="58" filterUnits="userSpaceOnUse" color-interpolation-filters="sRGB">
<feFlood flood-opacity="0" result="BackgroundImageFix"/>
<feColorMatrix in="SourceAlpha" type="matrix" values="0 0 0 0 0 0 0 0 0 0 0 0 0 0 0 0 0 0 127 0" result="hardAlpha"/>
<feOffset dy="2"/>
<feGaussianBlur stdDeviation="6"/>
<feColorMatrix type="matrix" values="0 0 0 0 0.299079 0 0 0 0 0.554519 0 0 0 0 0.923416 0 0 0 0.186481 0"/>
<feBlend mode="normal" in2="BackgroundImageFix" result="effect1_dropShadow_1_62"/>
<feBlend mode="normal" in="SourceGraphic" in2="effect1_dropShadow_1_62" result="shape"/>
</filter>
<linearGradient id="paint0_linear_1_62" x1="12" y1="43.7597" x2="46.0875" y2="43.7597" gradientUnits="userSpaceOnUse">
<stop stop-color="#4C8DEB"/>
<stop offset="1" stop-color="#4C74EC"/>
</linearGradient>
</defs>
</svg>
