<svg width="15" height="12" viewBox="0 0 15 12" fill="none" xmlns="http://www.w3.org/2000/svg">
<path d="M12.8571 0H1.37755C0.619898 0 0 0.578571 0 1.28571C0 1.99286 0.619898 2.57143 1.37755 2.57143H12.8571C13.6148 2.57143 14.2347 1.99286 14.2347 1.28571C14.2347 0.578571 13.6148 0 12.8571 0Z" fill="#A0BCE4"/>
<path d="M12.8571 4.71428H1.37755C0.619898 4.71428 0 5.29285 0 5.99999C0 6.70714 0.619898 7.28571 1.37755 7.28571H12.8571C13.6148 7.28571 14.2347 6.70714 14.2347 5.99999C14.2347 5.29285 13.6148 4.71428 12.8571 4.71428Z" fill="#A0BCE4"/>
<path d="M12.8571 9.42857H1.37755C0.619898 9.42857 0 10.0071 0 10.7143C0 11.4214 0.619898 12 1.37755 12H12.8571C13.6148 12 14.2347 11.4214 14.2347 10.7143C14.2347 10.0071 13.6148 9.42857 12.8571 9.42857Z" fill="#A0BCE4"/>
</svg>
