<svg width="20" height="18" viewBox="0 0 20 18" fill="none" xmlns="http://www.w3.org/2000/svg">
<path d="M9.07771 8.00172C9.07771 7.39203 9.22222 6.81566 9.47749 6.30387C9.36984 6.29855 9.82268 6.30025 2.86597 6.30025C1.30938 6.30025 0.0220914 7.56647 0.0141858 9.13769L0 11.9598C1.10139 11.9598 1.32297 11.9598 2.41018 11.9598L2.42429 9.14988C2.42503 9.01069 2.53814 8.89853 2.67719 8.8989C2.81624 8.89934 2.92869 9.01209 2.92869 9.15114V11.9598H6.3072C7.03533 10.7958 8.28729 10.0649 9.64994 10.0088C9.28007 9.41313 9.07771 8.72579 9.07771 8.00172Z" fill="white"/>
<path d="M6.09748 0C4.71821 0 3.59998 1.11816 3.59998 2.49751C3.59998 3.87057 4.71164 4.99501 6.09748 4.99501C7.467 4.99501 8.59506 3.88564 8.59506 2.49751C8.59506 1.11809 7.47683 0 6.09748 0Z" fill="white"/>
<path d="M19.3376 17.4252L19.3173 14.5375C19.3096 12.9791 18.0361 11.7 16.4656 11.7C14.6522 11.7 12.0477 11.7 10.148 11.7C8.58342 11.7 7.2221 12.9728 7.2142 14.5375L7.20001 17.4253H9.61019L9.6243 14.5496C9.62489 14.4297 9.72234 14.3331 9.84211 14.3334C9.96188 14.3337 10.0587 14.4309 10.0587 14.5507V17.4254C11.4715 17.4254 15.1185 17.4254 16.4417 17.4254V14.5507C16.4417 14.4224 16.5455 14.3184 16.6738 14.318C16.802 14.3177 16.9065 14.4212 16.9071 14.5495L16.9212 17.4253L19.3376 17.4252Z" fill="white"/>
<path d="M12.4267 10.4534C13.8222 10.4534 14.9534 9.32214 14.9534 7.92668C14.9534 6.53123 13.8222 5.39999 12.4267 5.39999C11.0313 5.39999 9.90002 6.53123 9.90002 7.92668C9.90002 9.32214 11.0313 10.4534 12.4267 10.4534Z" fill="white"/>
</svg>
